<svg xmlns="http://www.w3.org/2000/svg" xmlns:xlink="http://www.w3.org/1999/xlink" width="39" height="30" viewBox="0 0 39 30">
    <defs>
        <path id="a" d="M0 .23h35.081v22.213H.001z"/>
        <path id="c" d="M.273.18H7.66v7.651H.273z"/>
    </defs>
    <g fill="none" fill-rule="evenodd">
        <g transform="translate(0 6.954)">
            <mask id="b" fill="#fff">
                <use xlink:href="#a"/>
            </mask>
            <path fill="#231F20" d="M.03 14.707c1.146 1.733 2.557 3.393 4.213 4.685.828.65 1.727 1.208 2.695 1.606.968.38 2.01.614 3.039.805 2.068.367 4.199.395 6.26.008 2.065-.366 4.04-1.138 5.884-2.136 1.84-1.019 3.563-2.25 5.068-3.722 1.517-1.459 2.813-3.14 3.992-4.893 1.146-1.774 2.315-3.57 3.117-5.507.185-.487.36-.985.414-1.487a2.052 2.052 0 0 0-.04-.723c-.062-.232-.194-.397-.382-.61-.285-.381-.777-.643-1.209-.93a32.86 32.86 0 0 0-1.364-.8h-.002l-.021-.014c-.505-.334-1.198-.458-1.842-.44-.321.014-.67.039-.959.135a3.042 3.042 0 0 0-.842.466c-1.045.81-1.86 1.932-2.57 3.064l.005-.01-3.647 7.425c-1.437 2.39-3.583 4.328-6.116 5.448-1.268.554-2.63.877-4.01.967a18.565 18.565 0 0 1-4.114-.26c-2.693-.49-5.352-1.518-7.57-3.077M0 14.674a20.014 20.014 0 0 0 7.617 3.002c1.35.227 2.723.303 4.088.226a11.786 11.786 0 0 0 3.948-.984c2.486-1.115 4.595-3.068 5.98-5.397l3.6-7.44.006-.01c.725-1.166 1.527-2.298 2.63-3.167.274-.216.586-.395.928-.518.358-.117.694-.135 1.046-.155.7-.014 1.414.082 2.053.497l-.022-.015c.468.257.928.522 1.385.801.443.296.93.532 1.3.997.165.18.378.442.451.732.08.29.082.58.057.86-.06.56-.238 1.078-.426 1.585-.817 2.005-1.972 3.803-3.114 5.604-1.176 1.78-2.48 3.498-4.03 4.981-1.533 1.5-3.292 2.758-5.161 3.795-3.731 2.112-8.22 2.887-12.414 2.035-1.047-.21-2.08-.456-3.083-.864-.988-.424-1.899-1.008-2.73-1.679A18.073 18.073 0 0 1 0 14.674" mask="url(#b)"/>
        </g>
        <g transform="translate(31.315)">
            <mask id="d" fill="#fff">
                <use xlink:href="#c"/>
            </mask>
            <path fill="#231F20" d="M.278 7.794c.65-.848 1.298-1.681 1.855-2.572.577-.865 1.026-1.819 1.562-2.757.263-.467.53-.933.848-1.375.16-.22.327-.437.543-.625.21-.203.537-.304.812-.282.575.015 1.098.366 1.377.84.278.48.374 1.029.384 1.562 0 .013-.01.024-.022.024a.023.023 0 0 1-.023-.021c-.04-.528-.168-1.058-.453-1.49C6.876.671 6.39.395 5.896.412 5.38.374 5.08.836 4.784 1.26c-.286.436-.53.907-.77 1.378-.477.933-.85 1.965-1.506 2.843C1.865 6.35 1.15 7.158.31 7.827a.023.023 0 0 1-.032-.005c-.007-.008-.006-.02 0-.028" mask="url(#d)"/>
        </g>
        <path fill="#231F20" d="M34.133 9.144c.01-.786.133-1.554.256-2.323.136-.766.365-1.516.583-2.266.216-.75.447-1.497.717-2.235.139-.367.288-.732.464-1.087.193-.332.343-.751.767-.916.012-.003.026.001.03.013a.02.02 0 0 1-.011.027l-.01.005c-.353.164-.488.586-.643.924-.144.36-.261.73-.369 1.102a32.87 32.87 0 0 0-.572 2.25c-.167.757-.289 1.522-.486 2.273-.208.749-.398 1.501-.679 2.24a.024.024 0 0 1-.03.015.023.023 0 0 1-.017-.022M25.053 17.038a31.511 31.511 0 0 1 1.917-4.525c.386-.724.784-1.454 1.324-2.085.545-.589 1.22-1.228 2.059-1.261.012-.001.022.01.023.022 0 .01-.008.02-.017.023-.737.285-1.254.892-1.733 1.513a27.707 27.707 0 0 0-1.354 1.973 38.379 38.379 0 0 0-2.179 4.357.021.021 0 0 1-.028.013.024.024 0 0 1-.012-.03"/>
    </g>
</svg>
